<svg id="Layer_1" data-name="Layer 1" xmlns="http://www.w3.org/2000/svg" viewBox="0 0 1069.91 509.67"><defs><style>.cls-1,.cls-2,.cls-3{fill:none;stroke-miterlimit:10;}.cls-1{stroke:#26bc5b;}.cls-1,.cls-3{stroke-width:16px;}.cls-2,.cls-3{stroke:#0077b6;}.cls-2{stroke-width:18px;}.cls-4{fill:#ff8c9d;}.cls-5{fill:#b2b2b2;}</style></defs><path class="cls-1" d="M987.7,768.73H506.23a45.86,45.86,0,0,0-45.86,45.86h0a39.86,39.86,0,0,0,39.86,39.86h307" transform="translate(-452.37 -759.73)"/><path class="cls-1" d="M998.93,1237.57c-135.27,0-244.93-105-244.93-234.42S863.66,768.73,998.93,768.73l-.85,71.1c-94.25,0-170.65,73.12-170.65,163.33s76.4,163.33,170.65,163.33Z" transform="translate(-452.37 -759.73)"/><path class="cls-2" d="M1047.93,1237.57c135.27,0,244.93-105,244.93-234.42S1183.2,768.73,1047.93,768.73l0,71.1c94.25,0,170.65,73.12,170.65,163.33s-76.4,163.33-170.65,163.33Z" transform="translate(-452.37 -759.73)"/><path class="cls-3" d="M1437.75,1242.16c-.33-.47-139.87-175.32-140.15-175.82-3-5.5-7.71-8.5-10.08-14.26" transform="translate(-452.37 -759.73)"/><path class="cls-3" d="M1349.57,1132.49" transform="translate(-452.37 -759.73)"/><path class="cls-3" d="M1514.28,1222.64s-6.38,29.43-22.38,36.43c-19.85,7.94-40.15-5.75-54.15-21.5-.21-.24-4.84.41-5,.15" transform="translate(-452.37 -759.73)"/><path class="cls-3" d="M1247.84,867.67C1264,886.1,1278,905.1,1293,924.1c52,63,99,124,148.07,185" transform="translate(-452.37 -759.73)"/><path class="cls-3" d="M1514.28,1224.72V808.38a39.77,39.77,0,0,0-39.89-39.65h0a34.57,34.57,0,0,0-34.67,34.47v304" transform="translate(-452.37 -759.73)"/><ellipse class="cls-4" cx="436.31" cy="276.87" rx="24.67" ry="16.65"/><ellipse class="cls-4" cx="706.47" cy="270.62" rx="24.67" ry="16.65"/><ellipse class="cls-5" cx="494.74" cy="183.74" rx="21.83" ry="44.94"/><ellipse class="cls-5" cx="640.33" cy="183.74" rx="21.83" ry="44.94"/></svg>