<svg version="1.2" baseProfile="tiny-ps" xmlns="http://www.w3.org/2000/svg" viewBox="0 0 180 40" width="250" height="56">
	<title>logo-svg</title>
	<style>
		tspan { white-space:pre }
		.shp0 { fill: #1abc9c } 
		.shp1 { fill: #fd9678 } 
		.shp2 { fill: #00a575 } 
		.shp3 { fill: #fff } 
	</style>
	<path id="Layer" class="shp0" d="M0 14.7L0 27.79C0 27.79 30.06 32.31 26.75 1L14.23 1C14.23 1 17.56 17.7 0 14.7Z" />
	<path id="Layer" class="shp1" d="M0 13.53L0 26.47C0 26.47 30.08 30.93 26.77 0L13.23 0C13.23 0 17.57 16.5 0 13.53Z" />
	<path id="Layer" class="shp0" d="M40 26.88L40 13.46C40 13.46 7.87 8.98 11.19 40L25.74 40C25.74 40 23.53 23.28 40 26.88Z" />
	<path id="Layer" class="shp1" d="M40 26.43L40 13.46C40 13.46 9.87 8.98 13.19 40L26.74 40C26.74 40 22.4 23.45 40 26.43Z" />
	<g id="Layer">
		<g id="Layer">
			<path id="Layer" fill-rule="evenodd" class="shp2" d="M61.53 18.53L61.53 13.29L65.43 13.29L65.43 27.49L61.53 27.49L61.53 21.93L56.77 21.93L56.77 27.49L52.87 27.49L52.87 13.29L56.77 13.29L56.77 18.53L61.53 18.53ZM71.77 21.85L71.77 24.09L77.99 24.09L77.99 27.49L67.87 27.49L67.87 13.29L77.81 13.29L77.81 16.69L71.77 16.69L71.77 18.69L76.93 18.69L76.93 21.85L71.77 21.85ZM83.79 13.29L86.95 13.29L92.23 27.49L88.11 27.49L87.25 24.71L83.47 24.71L82.63 27.49L78.49 27.49L83.79 13.29ZM86.63 22.11L85.37 17.35L84.05 22.11L86.63 22.11ZM96.77 13.29L96.77 24.09L103.21 24.09L103.21 27.49L92.87 27.49L92.87 13.29L96.77 13.29ZM101.85 16.69L101.85 13.29L113.93 13.29L113.93 16.69L109.85 16.69L109.85 27.49L105.95 27.49L105.95 16.69L101.85 16.69ZM123.53 13.29L127.43 13.29L127.43 27.49L123.53 27.49L123.53 21.93L118.77 21.93L118.77 27.49L114.87 27.49L114.87 13.29L118.77 13.29L118.77 18.53L123.53 18.53L123.53 13.29ZM140.23 23.49L141.73 24.31C141.5 24.84 141.19 25.31 140.78 25.72C140.37 26.12 139.91 26.47 139.4 26.75C138.89 27.03 138.34 27.24 137.77 27.39C137.19 27.53 136.64 27.61 136.09 27.61C135.12 27.61 134.22 27.39 133.41 26.97C132.6 26.54 131.89 25.98 131.3 25.3C130.71 24.61 130.25 23.83 129.92 22.95C129.59 22.08 129.43 21.19 129.43 20.29C129.43 19.43 129.58 18.58 129.88 17.74C130.18 16.89 130.62 16.13 131.2 15.46C131.78 14.78 132.49 14.24 133.33 13.83C134.17 13.41 135.12 13.21 136.19 13.21C137.46 13.21 138.54 13.49 139.45 14.07C140.36 14.64 141.03 15.39 141.47 16.31L140.05 17.23C139.84 16.77 139.58 16.39 139.28 16.09C138.98 15.78 138.65 15.53 138.3 15.35C137.94 15.16 137.58 15.03 137.21 14.95C136.84 14.87 136.47 14.83 136.11 14.83C135.32 14.83 134.63 14.99 134.02 15.32C133.41 15.64 132.9 16.07 132.49 16.6C132.08 17.12 131.76 17.72 131.56 18.38C131.35 19.04 131.25 19.7 131.25 20.37C131.25 21.11 131.37 21.82 131.62 22.5C131.87 23.17 132.21 23.77 132.65 24.29C133.09 24.81 133.61 25.22 134.21 25.52C134.81 25.83 135.46 25.99 136.17 25.99C136.54 25.99 136.92 25.94 137.32 25.84C137.71 25.75 138.09 25.6 138.45 25.4C138.81 25.19 139.14 24.93 139.46 24.61C139.77 24.3 140.03 23.93 140.23 23.49ZM147.67 13.29L149.19 13.29L154.99 27.49L153.07 27.49L151.39 23.33L145.43 23.33L143.77 27.49L141.85 27.49L147.67 13.29ZM150.99 21.93L148.43 15.37L145.79 21.93L150.99 21.93ZM164.75 22.05L168.19 27.49L166.15 27.49L162.91 22.39L159.15 22.39L159.15 27.49L157.35 27.49L157.35 13.29L163.43 13.29C164.06 13.29 164.63 13.42 165.16 13.68C165.69 13.94 166.14 14.28 166.52 14.72C166.9 15.15 167.2 15.64 167.41 16.18C167.62 16.72 167.73 17.27 167.73 17.83C167.73 18.32 167.66 18.8 167.52 19.26C167.38 19.72 167.18 20.13 166.92 20.51C166.66 20.88 166.35 21.2 165.98 21.47C165.61 21.73 165.2 21.93 164.75 22.05ZM164.46 20.55C164.76 20.39 165.01 20.17 165.23 19.9C165.44 19.62 165.61 19.31 165.73 18.95C165.85 18.59 165.91 18.21 165.91 17.83C165.91 17.43 165.84 17.05 165.7 16.7C165.56 16.34 165.37 16.03 165.14 15.76C164.91 15.48 164.63 15.27 164.32 15.12C164 14.96 163.68 14.89 163.33 14.89L159.15 14.89L159.15 20.79L163.45 20.79C163.82 20.79 164.16 20.71 164.46 20.55ZM172.15 25.89L179.99 25.89L179.99 27.49L170.35 27.49L170.35 13.29L179.81 13.29L179.81 14.89L172.15 14.89L172.15 19.49L178.81 19.49L178.81 20.99L172.15 20.99L172.15 25.89Z" />
		</g>
	</g>
	<g id="Layer">
		<g id="Layer">
			<path id="Layer" fill-rule="evenodd" class="shp3" d="M61.53 18.12L61.53 12.88L65.43 12.88L65.43 27.08L61.53 27.08L61.53 21.52L56.77 21.52L56.77 27.08L52.87 27.08L52.87 12.88L56.77 12.88L56.77 18.12L61.53 18.12ZM71.77 21.44L71.77 23.68L77.99 23.68L77.99 27.08L67.87 27.08L67.87 12.88L77.81 12.88L77.81 16.28L71.77 16.28L71.77 18.28L76.93 18.28L76.93 21.44L71.77 21.44ZM83.79 12.88L86.95 12.88L92.23 27.08L88.11 27.08L87.25 24.3L83.47 24.3L82.63 27.08L78.49 27.08L83.79 12.88ZM86.63 21.7L85.37 16.94L84.05 21.7L86.63 21.7ZM96.77 12.88L96.77 23.68L103.21 23.68L103.21 27.08L92.87 27.08L92.87 12.88L96.77 12.88ZM101.85 16.28L101.85 12.88L113.93 12.88L113.93 16.28L109.85 16.28L109.85 27.08L105.95 27.08L105.95 16.28L101.85 16.28ZM123.53 12.88L127.43 12.88L127.43 27.08L123.53 27.08L123.53 21.52L118.77 21.52L118.77 27.08L114.87 27.08L114.87 12.88L118.77 12.88L118.77 18.12L123.53 18.12L123.53 12.88ZM140.23 23.08L141.73 23.9C141.5 24.43 141.19 24.9 140.78 25.31C140.37 25.72 139.91 26.06 139.4 26.34C138.89 26.62 138.34 26.84 137.77 26.98C137.19 27.13 136.64 27.2 136.09 27.2C135.12 27.2 134.22 26.99 133.41 26.56C132.6 26.13 131.89 25.58 131.3 24.89C130.71 24.2 130.25 23.42 129.92 22.55C129.59 21.68 129.43 20.79 129.43 19.88C129.43 19.03 129.58 18.18 129.88 17.33C130.18 16.49 130.62 15.73 131.2 15.05C131.78 14.38 132.49 13.84 133.33 13.42C134.17 13.01 135.12 12.8 136.19 12.8C137.46 12.8 138.54 13.09 139.45 13.66C140.36 14.23 141.03 14.98 141.47 15.9L140.05 16.82C139.84 16.37 139.58 15.99 139.28 15.68C138.98 15.37 138.65 15.13 138.3 14.94C137.94 14.76 137.58 14.62 137.21 14.54C136.84 14.46 136.47 14.42 136.11 14.42C135.32 14.42 134.63 14.59 134.02 14.91C133.41 15.24 132.9 15.67 132.49 16.19C132.08 16.72 131.76 17.31 131.56 17.97C131.35 18.63 131.25 19.29 131.25 19.96C131.25 20.71 131.37 21.42 131.62 22.09C131.87 22.76 132.21 23.36 132.65 23.88C133.09 24.4 133.61 24.81 134.21 25.12C134.81 25.43 135.46 25.58 136.17 25.58C136.54 25.58 136.92 25.53 137.32 25.44C137.71 25.35 138.09 25.2 138.45 24.99C138.81 24.78 139.14 24.52 139.46 24.21C139.77 23.9 140.03 23.52 140.23 23.08ZM147.67 12.88L149.19 12.88L154.99 27.08L153.07 27.08L151.39 22.92L145.43 22.92L143.77 27.08L141.85 27.08L147.67 12.88ZM150.99 21.52L148.43 14.96L145.79 21.52L150.99 21.52ZM164.75 21.64L168.19 27.08L166.15 27.08L162.91 21.98L159.15 21.98L159.15 27.08L157.35 27.08L157.35 12.88L163.43 12.88C164.06 12.88 164.63 13.01 165.16 13.27C165.69 13.53 166.14 13.88 166.52 14.31C166.9 14.75 167.2 15.23 167.41 15.77C167.62 16.31 167.73 16.86 167.73 17.42C167.73 17.91 167.66 18.39 167.52 18.85C167.38 19.31 167.18 19.73 166.92 20.1C166.66 20.47 166.35 20.79 165.98 21.06C165.61 21.33 165.2 21.52 164.75 21.64ZM164.46 20.14C164.76 19.98 165.01 19.76 165.23 19.49C165.44 19.22 165.61 18.9 165.73 18.54C165.85 18.18 165.91 17.81 165.91 17.42C165.91 17.02 165.84 16.64 165.7 16.29C165.56 15.94 165.37 15.62 165.14 15.35C164.91 15.08 164.63 14.86 164.32 14.71C164 14.56 163.68 14.48 163.33 14.48L159.15 14.48L159.15 20.38L163.45 20.38C163.82 20.38 164.16 20.3 164.46 20.14ZM172.15 25.48L179.99 25.48L179.99 27.08L170.35 27.08L170.35 12.88L179.81 12.88L179.81 14.48L172.15 14.48L172.15 19.08L178.81 19.08L178.81 20.58L172.15 20.58L172.15 25.48Z" />
		</g>
	</g>
</svg>