<?xml version="1.0" standalone="no"?>
<!DOCTYPE svg PUBLIC "-//W3C//DTD SVG 20010904//EN"
 "http://www.w3.org/TR/2001/REC-SVG-20010904/DTD/svg10.dtd">
<svg version="1.0" xmlns="http://www.w3.org/2000/svg"
 width="80.000000pt" height="80.000000pt" viewBox="0 0 1200.000000 1200.000000"
 preserveAspectRatio="xMidYMid meet">

<g transform="translate(0.000000,1200.000000) scale(0.100000,-0.100000)"
fill="#00f" stroke="none">
<path d="M7600 8980 c-107 -7 -363 -43 -435 -61 -340 -82 -599 -178 -870 -322
-134 -70 -386 -237 -483 -319 l-63 -53 -2 -1553 c-1 -853 -1 -1552 0 -1552 21
0 396 158 658 278 584 266 1162 619 1519 929 l80 69 -3 1290 c-1 709 -4 1291
-6 1293 -8 7 -295 8 -395 1z"/>
<path d="M8130 7874 c0 -605 -3 -1157 -6 -1229 l-5 -130 61 65 c33 36 76 87
95 115 l35 50 0 602 0 603 103 0 c185 0 491 -49 624 -100 192 -74 330 -213
367 -370 21 -88 20 -151 -5 -278 -17 -91 -32 -130 -95 -259 -94 -190 -152
-273 -345 -488 -166 -184 -369 -375 -555 -520 -235 -183 -270 -209 -519 -378
-206 -140 -440 -281 -735 -442 -328 -179 -349 -195 -119 -90 79 36 200 91 269
123 199 90 959 475 1067 540 54 32 136 80 183 107 239 135 619 384 840 551
395 297 521 412 774 704 70 81 169 238 206 327 15 37 36 103 45 146 16 72 16
83 1 148 -19 84 -70 174 -127 223 -115 98 -348 175 -604 199 -221 20 -688 9
-910 -23 -38 -5 -119 -15 -180 -21 -60 -6 -141 -17 -178 -25 -120 -25 -106
-80 -109 446 -3 393 -5 461 -18 474 -8 8 -47 17 -87 21 l-73 7 0 -1098z"/>
<path d="M4980 8190 c-196 -21 -378 -58 -518 -105 -107 -37 -267 -109 -277
-125 -4 -6 -6 -320 -5 -698 l1 -688 -143 -71 c-133 -65 -454 -242 -593 -326
-112 -68 -140 -85 -288 -176 -82 -50 -167 -103 -190 -119 -23 -15 -103 -68
-177 -118 -137 -90 -249 -172 -375 -274 -38 -31 -115 -92 -169 -136 -115 -91
-345 -317 -432 -425 -80 -98 -186 -254 -225 -331 -17 -34 -40 -103 -50 -152
-17 -82 -17 -97 -4 -159 18 -88 44 -141 96 -195 159 -166 425 -239 904 -249
208 -4 276 -1 505 21 289 29 427 47 535 71 62 14 141 29 498 95 53 10 112 23
130 29 17 5 91 22 162 36 72 15 132 29 135 32 3 3 -8 3 -25 0 -68 -14 -299
-47 -430 -63 -219 -25 -602 -22 -775 6 -350 57 -558 180 -639 377 -33 80 -40
223 -16 313 9 36 21 82 26 103 13 52 78 182 152 301 128 206 412 511 697 750
249 208 633 486 673 486 16 0 17 -47 15 -805 l-3 -805 125 6 c69 3 166 12 215
19 50 7 126 16 170 20 106 8 559 120 765 188 25 9 57 18 73 21 l27 6 0 1554 0
1553 -67 6 c-38 3 -117 13 -178 21 -114 16 -213 18 -325 6z"/>
<path d="M8245 5388 c-33 -15 -64 -28 -70 -28 -5 0 -19 -7 -30 -16 -19 -14
-19 -27 -16 -581 l3 -566 -73 7 c-86 9 -454 -9 -621 -30 -229 -29 -532 -109
-748 -199 -325 -135 -740 -400 -925 -592 -48 -50 -88 -83 -100 -83 -11 0 -60
11 -110 24 -130 35 -295 51 -495 49 -310 -2 -497 -42 -767 -160 -57 -25 -108
-54 -113 -64 -13 -24 -13 -159 0 -159 6 0 37 13 70 30 115 58 269 107 480 152
91 20 134 23 325 23 246 0 289 -7 534 -87 l124 -40 111 109 c425 419 889 671
1498 811 261 61 564 82 818 59 85 -8 149 -10 155 -5 10 9 25 1270 15 1339 l-5
36 -60 -29z"/>
<path d="M7770 5153 c-327 -161 -1119 -517 -1220 -548 -14 -4 -126 -48 -250
-97 -206 -82 -574 -217 -745 -272 -136 -45 -301 -96 -390 -121 -49 -15 -142
-41 -205 -60 -113 -32 -205 -58 -345 -96 -38 -10 -104 -27 -145 -39 -41 -11
-118 -29 -170 -41 -52 -12 -101 -24 -107 -28 -10 -5 -13 -73 -15 -269 -2 -144
-2 -262 -1 -262 1 0 52 20 112 45 333 135 616 181 974 157 100 -7 219 -20 264
-29 45 -8 92 -13 105 -10 13 4 73 48 134 99 229 192 350 270 629 408 173 86
389 172 525 210 172 49 261 70 330 79 41 5 102 14 135 20 33 5 119 15 192 21
72 6 147 15 165 21 48 15 158 71 158 79 0 5 14 23 31 41 63 67 61 58 70 355 4
151 11 295 14 319 8 53 -2 125 -18 124 -7 0 -109 -48 -227 -106z"/>
<path d="M6845 4950 c-3 -6 1 -7 9 -4 18 7 21 14 7 14 -6 0 -13 -4 -16 -10z"/>
</g>
</svg>
